<svg width="50" height="40" viewBox="0 0 50 40" fill="none" xmlns="http://www.w3.org/2000/svg">
<path d="M49.4886 18.7138L37.926 6.4637C37.2154 5.70998 36.0291 5.67561 35.2754 6.38684C34.5229 7.09749 34.4879 8.28431 35.1991 9.03744L45.5474 20L35.1991 30.9638C34.4879 31.717 34.5229 32.9032 35.2754 33.6144C35.6232 33.9432 36.0838 34.1262 36.5623 34.1257C36.8177 34.126 37.0704 34.0741 37.3049 33.9732C37.5394 33.8722 37.7508 33.7244 37.9261 33.5388L49.4887 21.2881C50.1704 20.5651 50.1704 19.4362 49.4886 18.7138ZM14.8015 30.9633L4.45394 20L14.8015 9.03686C15.5121 8.28373 15.4777 7.09681 14.7246 6.38626C13.9721 5.67561 12.7846 5.70998 12.074 6.46311L0.511441 18.7132C-0.170399 19.4357 -0.170399 20.5651 0.511441 21.2876L12.0746 33.5383C12.4433 33.9289 12.9402 34.1258 13.4384 34.1258C13.8996 34.1258 14.3628 33.9558 14.7246 33.6139C15.4784 32.9032 15.5121 31.7164 14.8015 30.9633ZM28.0335 0.14618C27.0103 -0.00880165 26.0528 0.693644 25.8966 1.71679L20.3965 37.717C20.2403 38.7407 20.9434 39.6977 21.9671 39.8539C22.0634 39.8683 22.1583 39.8752 22.2528 39.8752C23.1634 39.8752 23.9622 39.2109 24.1041 38.2833L29.6041 2.28311C29.7603 1.25927 29.0572 0.302431 28.0335 0.14618Z" fill="white"/>
</svg>
