<svg xmlns="http://www.w3.org/2000/svg" version="1.1" fill="currentColor" width="512" height="512"
    x="0" y="0"
    viewBox="0 0 512 512"
>
    <g>
        <path
            d="M256 246c-5.52 0-10 4.48-10 10s4.48 10 10 10 10-4.48 10-10-4.48-10-10-10zM256 326c-5.52 0-10 4.48-10 10s4.48 10 10 10 10-4.48 10-10-4.48-10-10-10zM256 409c-5.52 0-10 4.48-10 10s4.48 10 10 10 10-4.48 10-10-4.48-10-10-10z"
        ></path>
        <path
            d="M445.982 92.654c-.006-.184-.011-.368-.028-.551-.014-.16-.038-.316-.059-.474-.023-.165-.044-.329-.075-.493-.031-.166-.071-.327-.11-.49a10.289 10.289 0 0 0-.118-.459c-.047-.161-.102-.318-.156-.476a9.376 9.376 0 0 0-.165-.451 9.793 9.793 0 0 0-.196-.444 9.605 9.605 0 0 0-.215-.446c-.074-.142-.155-.279-.236-.416-.084-.143-.167-.287-.259-.427-.091-.139-.19-.273-.288-.407-.094-.129-.186-.258-.286-.383-.115-.143-.238-.277-.36-.413-.078-.087-.148-.179-.229-.264l-80-83c-.022-.023-.046-.041-.068-.064-.131-.133-.27-.257-.407-.382-.108-.099-.214-.202-.325-.295-.125-.105-.259-.199-.39-.298-.132-.1-.261-.205-.397-.297-.116-.079-.24-.147-.359-.221-.156-.097-.311-.199-.471-.286-.132-.072-.27-.131-.405-.197-.154-.075-.307-.157-.464-.224-.175-.074-.357-.134-.537-.199-.123-.044-.244-.096-.369-.135-.182-.057-.37-.1-.557-.147-.129-.032-.256-.072-.386-.099-.163-.034-.33-.055-.495-.081-.16-.025-.319-.056-.48-.073-.144-.016-.291-.019-.437-.029-.187-.012-.374-.027-.562-.028C356.06.004 356.031 0 356 0H96C79.458 0 66 13.458 66 30v452c0 16.542 13.458 30 30 30h320c16.542 0 30-13.458 30-30V93c0-.117-.013-.23-.018-.346zM366 34.785 412.472 83H376c-5.514 0-10-4.486-10-10V34.785zM426 482c0 5.514-4.486 10-10 10H96c-5.514 0-10-4.486-10-10V30c0-5.514 4.486-10 10-10h250v53c0 16.542 13.458 30 30 30h50v379z"
        ></path>
        <path
            d="M203.071 228.928a10 10 0 0 0-14.142.001L156 261.858l-12.929-12.929c-3.906-3.905-10.236-3.905-14.143 0-3.905 3.905-3.905 10.237 0 14.143l20 20C150.882 285.024 153.44 286 156 286s5.118-.976 7.071-2.929l40-40c3.905-3.905 3.905-10.237 0-14.143zM376 246h-80c-5.522 0-10 4.477-10 10s4.478 10 10 10h80c5.522 0 10-4.477 10-10s-4.478-10-10-10zM203.071 308.928a10 10 0 0 0-14.142.001L156 341.858l-12.929-12.929c-3.906-3.905-10.236-3.905-14.143 0-3.905 3.905-3.905 10.237 0 14.143l20 20C150.882 365.024 153.44 366 156 366s5.118-.976 7.071-2.929l40-40c3.905-3.905 3.905-10.237 0-14.143zM376 326h-80c-5.522 0-10 4.477-10 10s4.478 10 10 10h80c5.522 0 10-4.477 10-10s-4.478-10-10-10zM203.071 391.928a10 10 0 0 0-14.142.001L156 424.858l-12.929-12.929c-3.906-3.905-10.236-3.905-14.143 0-3.905 3.905-3.905 10.237 0 14.143l20 20C150.882 448.024 153.44 449 156 449s5.118-.976 7.071-2.929l40-40c3.905-3.905 3.905-10.237 0-14.143zM376 409h-80c-5.522 0-10 4.477-10 10s4.478 10 10 10h80c5.522 0 10-4.477 10-10s-4.478-10-10-10zM225.285 169.286l-16.067-40.166-.007-.017-23.927-59.816a9.999 9.999 0 0 0-18.569-.001l-23.927 59.816-.007.017-16.067 40.166c-2.05 5.129.444 10.948 5.572 13 5.126 2.052 10.946-.443 12.999-5.571L158.771 143h34.459l13.485 33.714a10.004 10.004 0 0 0 9.288 6.289c1.236 0 2.493-.23 3.711-.718 5.128-2.051 7.622-7.871 5.571-12.999zM166.77 123 176 99.926 185.229 123H166.77zM276 83h-10V73c0-5.523-4.478-10-10-10s-10 4.477-10 10v10h-10c-5.522 0-10 4.477-10 10s4.478 10 10 10h10v10c0 5.523 4.478 10 10 10s10-4.477 10-10v-10h10c5.522 0 10-4.477 10-10s-4.478-10-10-10z"></path>
    </g>
</svg>