<svg width="50" height="50" viewBox="0 0 50 50" fill="none" xmlns="http://www.w3.org/2000/svg">
<path d="M2.07163 20.6277C1.57404 20.7084 1.11595 20.9481 0.765941 21.3109C0.415929 21.6737 0.192806 22.1401 0.129964 22.6402C-0.0416678 24.1962 -0.0433505 25.7663 0.124946 27.3227C0.182042 27.8304 0.403162 28.3057 0.754768 28.6764C1.10637 29.0471 1.56928 29.293 2.07328 29.3768L4.72491 29.811C5.234 31.9793 6.09332 34.0501 7.26903 35.9418L5.70825 38.1218C5.08631 38.965 5.10137 40.119 5.74494 40.9459C6.24172 41.5536 6.77022 42.1347 7.32826 42.6868C7.83996 43.1993 8.40571 43.7143 9.08491 44.285C9.48423 44.5921 9.97243 44.7613 10.4761 44.7672C10.9798 44.773 11.4719 44.6152 11.8782 44.3175L14.069 42.7459C15.9588 43.9214 18.0275 44.781 20.1939 45.2908L20.629 47.9467C20.7095 48.4444 20.9491 48.9027 21.3119 49.2529C21.6747 49.6031 22.1412 49.8263 22.6415 49.8892C23.1211 49.9431 23.6025 49.98 24.0848 50H24.1556C24.5899 49.9996 25.0075 49.8326 25.3222 49.5333C25.4841 49.3786 25.6129 49.1926 25.7007 48.9866C25.7885 48.7806 25.8335 48.5589 25.833 48.335V41.6567C25.8281 40.7643 25.1237 40.0328 24.2322 39.9942C16.2561 39.5778 10.0025 32.9892 10.0025 25.0023C10.0025 17.0154 16.2561 10.4268 24.2322 10.0103C25.1251 9.97117 25.8299 9.23751 25.833 8.34367V1.66876C25.8337 1.44461 25.7886 1.22267 25.7007 1.01651C25.6127 0.810337 25.4836 0.624262 25.3213 0.469639C25.1594 0.310735 24.9662 0.187145 24.7541 0.106674C24.5419 0.026203 24.3154 -0.0093998 24.0888 0.00211448C23.6038 0.0212827 23.123 0.0562463 22.6296 0.106265C22.1297 0.170685 21.6643 0.395886 21.3035 0.747911C20.9428 1.09994 20.7063 1.5597 20.6296 2.05789L20.1955 4.71117C18.0291 5.22137 15.9603 6.08125 14.0705 7.25701L11.8798 5.68867C11.4697 5.38882 10.9731 5.23097 10.4652 5.23909C9.95726 5.24722 9.46589 5.42086 9.06566 5.73367C8.46147 6.22824 7.88321 6.75367 7.33319 7.30785C6.76631 7.862 6.23262 8.44912 5.73491 9.06615C5.42539 9.46598 5.25413 9.95555 5.24692 10.4611C5.23971 10.9667 5.39693 11.461 5.69493 11.8695L7.26574 14.0628C6.09104 15.9543 5.23282 18.0249 4.72491 20.1928L2.07163 20.6277ZM6.23246 21.0927C6.71695 18.739 7.64637 16.4995 8.9708 14.4945C9.0635 14.3536 9.11129 14.188 9.10787 14.0194C9.10445 13.8508 9.04997 13.6872 8.95164 13.5503L7.05085 10.8962C6.96522 10.7832 6.91784 10.6458 6.91559 10.504C6.91334 10.3623 6.95634 10.2235 7.03835 10.1078C7.49514 9.54171 7.98516 9.00326 8.50583 8.49529C9.01159 7.98439 9.54281 7.49933 10.0975 7.04196C10.2136 6.95343 10.3556 6.90548 10.5016 6.90548C10.6477 6.90548 10.7897 6.95343 10.9058 7.04196L13.5558 8.94365C13.6929 9.04174 13.8566 9.09593 14.0252 9.09905C14.1937 9.10218 14.3593 9.05411 14.5 8.96117C16.5034 7.63623 18.7416 6.70649 21.0941 6.22201C21.2593 6.18795 21.4103 6.10455 21.5271 5.98283C21.6439 5.86112 21.7211 5.70682 21.7483 5.54034L22.2724 2.33118C22.2908 2.19096 22.3536 2.06033 22.4517 1.95848C22.5498 1.85663 22.678 1.78894 22.8174 1.76535C23.266 1.71872 23.716 1.68648 24.1666 1.66868L24.1483 8.34442C15.2763 8.79754 8.31678 16.1257 8.32172 25.0092C8.32657 33.8927 15.2942 41.2132 24.1666 41.6565L24.1549 48.3348C23.7111 48.3164 23.2681 48.2822 22.8267 48.2323C22.6866 48.2118 22.557 48.1465 22.4572 48.0461C22.3575 47.9458 22.2929 47.8158 22.2733 47.6756L21.7483 44.4648C21.7211 44.2983 21.6439 44.144 21.5271 44.0223C21.4103 43.9006 21.2593 43.8172 21.0941 43.7831C18.7416 43.2983 16.5034 42.3683 14.5 41.0431C14.3592 40.9503 14.1936 40.9024 14.025 40.9057C13.8565 40.9089 13.6928 40.9633 13.5558 41.0615L10.9033 42.9648C10.7931 43.0505 10.6584 43.0988 10.5188 43.1025C10.3793 43.1063 10.2421 43.0653 10.1275 42.9856C9.515 42.4698 8.98413 41.9857 8.50583 41.5081C7.99485 41.0033 7.51005 40.4726 7.05332 39.9181C6.9658 39.8013 6.91851 39.6592 6.91851 39.5131C6.91851 39.3671 6.9658 39.225 7.05332 39.1081L8.95246 36.4565C9.05067 36.3195 9.105 36.1558 9.10828 35.9873C9.11155 35.8187 9.06362 35.6531 8.9708 35.5123C7.64629 33.5076 6.71685 31.2683 6.23246 28.9149C6.19844 28.7498 6.11516 28.5989 5.99361 28.4821C5.87206 28.3653 5.71795 28.2881 5.55162 28.2607L2.34328 27.7349C2.19795 27.7108 2.06448 27.6399 1.96322 27.5329C1.86196 27.426 1.79848 27.2888 1.78246 27.1424C1.62639 25.709 1.62807 24.2629 1.78748 22.8299C1.80768 22.6898 1.87275 22.5599 1.97296 22.4599C2.07316 22.3598 2.20309 22.2949 2.34328 22.275L5.55071 21.7499C5.71766 21.7226 5.87232 21.6451 5.9941 21.5277C6.11589 21.4102 6.19903 21.2585 6.23246 21.0927Z" fill="white"/>
<path d="M47.4996 22.5019C46.9844 22.504 46.4824 22.6653 46.0623 22.9636C45.6423 23.262 45.3247 23.6828 45.1529 24.1686H25.8331V21.6685H39.1663C40.547 21.6685 41.6663 20.5493 41.6663 19.1686V14.8487C42.8142 14.4428 43.5028 13.269 43.2969 12.0689C43.091 10.8689 42.0504 9.9917 40.8329 9.9917C39.6153 9.9917 38.5748 10.8689 38.3689 12.0689C38.163 13.269 38.8516 14.4428 39.9995 14.8487V19.1686C39.9995 19.6288 39.6264 20.002 39.1662 20.002H25.8331V17.5019H34.9997C35.4599 17.5019 35.8329 17.1289 35.8329 16.6686C35.8329 16.2083 35.4599 15.8352 34.9997 15.8352H25.8331V14.1686H30.8331C32.2138 14.1686 33.3331 13.0493 33.3331 11.6686V6.51542C34.481 6.10959 35.1696 4.93572 34.9637 3.73569C34.7578 2.53566 33.7173 1.65845 32.4997 1.65845C31.2822 1.65845 30.2417 2.53566 30.0357 3.73569C29.8298 4.93572 30.5184 6.10959 31.6664 6.51542V11.6687C31.6664 12.1289 31.2933 12.5021 30.833 12.5021H25.6131C25.4727 12.2412 25.2601 12.0264 25.0007 11.8833C24.7413 11.7402 24.4461 11.675 24.1506 11.6955C17.1282 12.1403 11.6602 17.9655 11.6602 25.002C11.6602 32.0385 17.1282 37.8637 24.1506 38.3085H24.2481C24.5274 38.3109 24.8021 38.237 25.0426 38.0949C25.2831 37.9528 25.4804 37.7477 25.6131 37.5019H30.833C31.2932 37.5019 31.6664 37.875 31.6664 38.3353V43.4886C30.5184 43.8944 29.8298 45.0683 30.0357 46.2683C30.2417 47.4683 31.2822 48.3455 32.4997 48.3455C33.7173 48.3455 34.7578 47.4683 34.9637 46.2683C35.1696 45.0683 34.481 43.8944 33.3331 43.4886V38.3353C33.3331 36.9546 32.2138 35.8353 30.8331 35.8353H25.8331V34.1686H34.9997C35.4599 34.1686 35.8329 33.7955 35.8329 33.3353C35.8329 32.8751 35.4599 32.502 34.9997 32.502H25.8331V30.002H39.1663C39.6265 30.002 39.9997 30.3751 39.9997 30.8353V35.1552C38.8517 35.5611 38.1632 36.7349 38.3691 37.935C38.575 39.135 39.6155 40.0122 40.8331 40.0122C42.0506 40.0122 43.0911 39.135 43.297 37.935C43.503 36.7349 42.8144 35.5611 41.6664 35.1552V30.8353C41.6664 29.4546 40.5472 28.3354 39.1665 28.3354H25.8331V25.8352H45.1529C45.5787 27.0307 46.8339 27.7162 48.0699 27.4285C49.3059 27.1407 50.1292 25.9713 49.9833 24.7106C49.8373 23.4501 48.7685 22.4997 47.4996 22.5019ZM40.833 11.6687C41.2932 11.6687 41.6663 12.0418 41.6663 12.5021C41.6663 12.9624 41.2932 13.3354 40.833 13.3354C40.3728 13.3354 39.9997 12.9624 39.9997 12.5021C39.9997 12.0418 40.3727 11.6687 40.833 11.6687ZM32.4997 3.33546C32.9599 3.33546 33.3331 3.70854 33.3331 4.16883C33.3331 4.62911 32.96 5.00211 32.4997 5.00211C32.0394 5.00211 31.6664 4.62903 31.6664 4.16883C31.6664 3.70863 32.0394 3.33546 32.4997 3.33546ZM32.4997 46.6684C32.0395 46.6684 31.6664 46.2953 31.6664 45.835C31.6664 45.3747 32.0395 45.0016 32.4997 45.0016C32.9599 45.0016 33.3331 45.3747 33.3331 45.835C33.3331 46.2953 32.9599 46.6684 32.4997 46.6684ZM40.833 38.3351C40.3728 38.3351 39.9997 37.962 39.9997 37.5018C39.9997 37.0415 40.3728 36.6685 40.833 36.6685C41.2932 36.6685 41.6663 37.0415 41.6663 37.5018C41.6663 37.962 41.2932 38.3351 40.833 38.3351ZM13.3332 25.0019C13.3402 18.8848 18.0655 13.8092 24.1665 13.3654V36.6385C18.0655 36.1946 13.3402 31.119 13.3332 25.0019ZM47.4996 25.8352C47.0394 25.8352 46.6662 25.4621 46.6662 25.0018C46.6662 24.5415 47.0393 24.1686 47.4996 24.1686C47.9599 24.1686 48.3329 24.5416 48.3329 25.0018C48.3329 25.462 47.9598 25.8352 47.4996 25.8352Z" fill="white"/>
</svg>
