<svg xmlns="http://www.w3.org/2000/svg" version="1.1" width="512" height="512" x="0" y="0"
    viewBox="0 0 682.667 682.667" fill="currentColor" stroke="#000000">
    <g>
        <defs>
            <clipPath id="a" clipPathUnits="userSpaceOnUse">
                <path d="M0 512h512V0H0Z"></path>
            </clipPath>
        </defs>
        <g clip-path="url(#a)" transform="matrix(1.33333 0 0 -1.33333 0 682.667)">
            <path d="M0 0c-2.168-11.628-4.494-26.078-6.475-42.847"
                style="stroke-width:15;stroke-linecap:round;stroke-linejoin:round;stroke-miterlimit:10;stroke-dasharray:none;stroke-opacity:1"
                transform="translate(108.94 299.204)" fill="none" stroke-width="15"
                stroke-linecap="round" stroke-linejoin="round" stroke-miterlimit="10"
                stroke-dasharray="none" stroke-opacity=""></path>
            <path d="M0 0c-2.063 34.089-6.229 62.441-9.953 82.533"
                style="stroke-width:15;stroke-linecap:round;stroke-linejoin:round;stroke-miterlimit:10;stroke-dasharray:none;stroke-opacity:1"
                transform="translate(413.124 216.072)" fill="none"
                stroke-width="15" stroke-linecap="round" stroke-linejoin="round"
                stroke-miterlimit="10" stroke-dasharray="none" stroke-opacity=""
            ></path>
            <path d="M0 0c12.845-3.617 27.45-6.854 43.882-9.284"
                style="stroke-width:15;stroke-linecap:round;stroke-linejoin:round;stroke-miterlimit:10;stroke-dasharray:none;stroke-opacity:1"
                transform="translate(171.262 138.775)" fill="none"
                stroke-width="15" stroke-linecap="round" stroke-linejoin="round"
                stroke-miterlimit="10" stroke-dasharray="none" stroke-opacity=""
            ></path>
            <path
                d="M0 0a714.924 714.924 0 0 1-1.771-45.19 10.34 10.34 0 0 1 4.356-8.528c3.898-2.76 10.436-7.002 19.752-11.796"
                style="stroke-width:15;stroke-linecap:round;stroke-linejoin:round;stroke-miterlimit:10;stroke-dasharray:none;stroke-opacity:1"
                transform="translate(99.357 223.413)" fill="none" stroke-width="15"
                stroke-linecap="round" stroke-linejoin="round" stroke-miterlimit="10"
                stroke-dasharray="none" stroke-opacity=""></path>
            <path
                d="m0 0 142.602 47.158c9.43 3.118 9.43 16.458 0 19.577l-234.953 77.698a20.623 20.623 0 0 1-12.948 0L-340.25 66.735c-9.431-3.119-9.431-16.459 0-19.577l234.951-77.698a20.61 20.61 0 0 1 12.948 0l60.754 20.091"
                style="stroke-width:15;stroke-linecap:round;stroke-linejoin:round;stroke-miterlimit:10;stroke-dasharray:none;stroke-opacity:1"
                transform="translate(354.823 285.25)" fill="none" stroke-width="15"
                stroke-linecap="round" stroke-linejoin="round" stroke-miterlimit="10"
                stroke-dasharray="none" stroke-opacity=""></path>
            <path
                d="M0 0c0-9.958-11.809-13.906-26.374-13.906-14.566 0-26.374 3.948-26.374 13.906s11.808 18.03 26.374 18.03C-11.809 18.03 0 9.958 0 0Z"
                style="stroke-width:15;stroke-linecap:round;stroke-linejoin:round;stroke-miterlimit:10;stroke-dasharray:none;stroke-opacity:1"
                transform="translate(282.275 354.146)" fill="none"
                stroke-width="15" stroke-linecap="round" stroke-linejoin="round"
                stroke-miterlimit="10" stroke-dasharray="none" stroke-opacity=""
            ></path>
            <path d="m0 0-86.647-57.338v-30.559"
                style="stroke-width:15;stroke-linecap:round;stroke-linejoin:round;stroke-miterlimit:10;stroke-dasharray:none;stroke-opacity:1"
                transform="translate(233.126 346.125)" fill="none"
                stroke-width="15" stroke-linecap="round" stroke-linejoin="round"
                stroke-miterlimit="10" stroke-dasharray="none" stroke-opacity=""
            ></path>
            <path
                d="M0 0c-6.229-21.503-12.624-58.305-12.876-119.065a4.996 4.996 0 0 1 3.757-4.857c4.175-1.077 11.585-2.539 21.027-2.539s16.852 1.462 21.027 2.539a4.996 4.996 0 0 1 3.756 4.857c-.252 60.635-6.62 97.41-12.837 118.932"
                style="stroke-width:15;stroke-linecap:round;stroke-linejoin:round;stroke-miterlimit:10;stroke-dasharray:none;stroke-opacity:1"
                transform="translate(134.57 218.15)" fill="none" stroke-width="15"
                stroke-linecap="round" stroke-linejoin="round" stroke-miterlimit="10"
                stroke-dasharray="none" stroke-opacity=""></path>
            <path
                d="M0 0c0-11.511-9.331-20.842-20.841-20.842-11.511 0-20.842 9.331-20.842 20.842 0 11.51 9.331 20.841 20.842 20.841C-9.331 20.841 0 11.51 0 0Z"
                style="stroke-width:15;stroke-linecap:round;stroke-linejoin:round;stroke-miterlimit:10;stroke-dasharray:none;stroke-opacity:1"
                transform="translate(167.32 237.387)" fill="none" stroke-width="15"
                stroke-linecap="round" stroke-linejoin="round" stroke-miterlimit="10"
                stroke-dasharray="none" stroke-opacity=""></path>
            <path d="m0 0 189.959 69.14"
                style="stroke-width:15;stroke-linecap:round;stroke-linejoin:round;stroke-miterlimit:10;stroke-dasharray:none;stroke-opacity:1"
                transform="translate(249.914 81.95)" fill="none" stroke-width="15"
                stroke-linecap="round" stroke-linejoin="round" stroke-miterlimit="10"
                stroke-dasharray="none" stroke-opacity=""></path>
            <path
                d="m0 0 23.471 8.542c9.931 3.615 12.814 20.748 6.437 38.268C23.531 64.329 10.312 75.601.379 71.986l-244.755-89.084"
                style="stroke-width:15;stroke-linecap:round;stroke-linejoin:round;stroke-miterlimit:10;stroke-dasharray:none;stroke-opacity:1"
                transform="translate(471.2 162.49)" fill="none" stroke-width="15"
                stroke-linecap="round" stroke-linejoin="round" stroke-miterlimit="10"
                stroke-dasharray="none" stroke-opacity=""></path>
            <path
                d="M0 0c6.377-17.52 3.495-34.652-6.437-38.267-9.932-3.615-23.153 7.657-29.529 25.176-6.377 17.52-3.495 34.653 6.438 38.267C-19.597 28.792-6.376 17.52 0 0Z"
                style="stroke-width:15;stroke-linecap:round;stroke-linejoin:round;stroke-miterlimit:10;stroke-dasharray:none;stroke-opacity:1"
                transform="translate(256.352 120.216)" fill="none"
                stroke-width="15" stroke-linecap="round" stroke-linejoin="round"
                stroke-miterlimit="10" stroke-dasharray="none" stroke-opacity=""
            ></path>
            <path
                d="M0 0c9.933 3.615 12.814 20.748 6.437 38.267-6.375 17.52-19.596 28.792-29.528 25.177l34.072 12.401c9.932 3.615 23.153-7.657 29.53-25.177 6.376-17.519 3.494-34.651-6.438-38.267 0 0 32.719 4.709 46.009-20.569 1.399-2.662.082-5.953-2.743-6.981l-34.42-12.528c-2.597-.945-5.472.389-6.408 2.989C32.83-14.459 22.015 8.013 0 0Z"
                style="stroke-width:15;stroke-linecap:round;stroke-linejoin:round;stroke-miterlimit:10;stroke-dasharray:none;stroke-opacity:1"
                transform="translate(365.838 124.142)" fill="none"
                stroke-width="15" stroke-linecap="round" stroke-linejoin="round"
                stroke-miterlimit="10" stroke-dasharray="none" stroke-opacity=""
            ></path>
            <path d="m0 0-34.073-12.401"
                style="stroke-width:15;stroke-linecap:round;stroke-linejoin:round;stroke-miterlimit:10;stroke-dasharray:none;stroke-opacity:1"
                transform="translate(399.911 136.543)" fill="none"
                stroke-width="15" stroke-linecap="round" stroke-linejoin="round"
                stroke-miterlimit="10" stroke-dasharray="none" stroke-opacity=""
            ></path>
        </g>
    </g>
</svg>